<mxfile host="Electron" modified="2024-02-13T10:54:06.405Z" agent="Mozilla/5.0 (Windows NT 10.0; Win64; x64) AppleWebKit/537.36 (KHTML, like Gecko) draw.io/22.1.11 Chrome/114.0.5735.289 Electron/25.9.8 Safari/537.36" etag="5BsVL40Hlw_oi2PJRTvw" version="22.1.11" type="device">
  <diagram name="Seite-1" id="CFLSVQIKgXCUkJSUXA3t">
    <mxGraphModel dx="1418" dy="828" grid="1" gridSize="10" guides="1" tooltips="1" connect="1" arrows="1" fold="1" page="1" pageScale="1" pageWidth="827" pageHeight="1169" math="0" shadow="0">
      <root>
        <mxCell id="0" />
        <mxCell id="1" parent="0" />
        <mxCell id="gKyT9kXN7fTIEtzjclrL-68" style="edgeStyle=orthogonalEdgeStyle;shape=connector;rounded=0;orthogonalLoop=1;jettySize=auto;html=1;labelBackgroundColor=default;strokeColor=default;align=center;verticalAlign=middle;fontFamily=Helvetica;fontSize=11;fontColor=default;endArrow=none;endFill=0;endSize=12;exitX=0.5;exitY=0.5;exitDx=0;exitDy=0;exitPerimeter=0;entryX=0;entryY=0.5;entryDx=0;entryDy=0;" parent="1" source="gKyT9kXN7fTIEtzjclrL-2" target="gKyT9kXN7fTIEtzjclrL-46" edge="1">
          <mxGeometry relative="1" as="geometry">
            <mxPoint x="170" y="200" as="targetPoint" />
            <Array as="points">
              <mxPoint x="135" y="274" />
            </Array>
          </mxGeometry>
        </mxCell>
        <mxCell id="gKyT9kXN7fTIEtzjclrL-69" style="edgeStyle=orthogonalEdgeStyle;shape=connector;rounded=0;orthogonalLoop=1;jettySize=auto;html=1;entryX=0;entryY=0.5;entryDx=0;entryDy=0;labelBackgroundColor=default;strokeColor=default;align=center;verticalAlign=middle;fontFamily=Helvetica;fontSize=11;fontColor=default;endArrow=none;endFill=0;endSize=12;" parent="1" source="dz00qN40Cw-8zwDNOvpN-2" target="gKyT9kXN7fTIEtzjclrL-67" edge="1">
          <mxGeometry relative="1" as="geometry">
            <Array as="points">
              <mxPoint x="270" y="80" />
              <mxPoint x="270" y="80" />
            </Array>
          </mxGeometry>
        </mxCell>
        <mxCell id="dz00qN40Cw-8zwDNOvpN-6" style="edgeStyle=orthogonalEdgeStyle;rounded=0;orthogonalLoop=1;jettySize=auto;html=1;exitX=0.25;exitY=0.1;exitDx=0;exitDy=0;exitPerimeter=0;endArrow=block;endFill=0;endSize=12;" edge="1" parent="1" source="gKyT9kXN7fTIEtzjclrL-2">
          <mxGeometry relative="1" as="geometry">
            <mxPoint x="55" y="140" as="targetPoint" />
          </mxGeometry>
        </mxCell>
        <mxCell id="gKyT9kXN7fTIEtzjclrL-2" value="Private_User" style="shape=umlActor;verticalLabelPosition=bottom;verticalAlign=top;html=1;" parent="1" vertex="1">
          <mxGeometry x="120" y="240" width="30" height="60" as="geometry" />
        </mxCell>
        <mxCell id="gKyT9kXN7fTIEtzjclrL-80" style="edgeStyle=orthogonalEdgeStyle;shape=connector;rounded=0;orthogonalLoop=1;jettySize=auto;html=1;entryX=0;entryY=0.75;entryDx=0;entryDy=0;labelBackgroundColor=default;strokeColor=default;align=center;verticalAlign=middle;fontFamily=Helvetica;fontSize=11;fontColor=default;endArrow=none;endFill=0;endSize=12;" parent="1" source="gKyT9kXN7fTIEtzjclrL-3" target="gKyT9kXN7fTIEtzjclrL-36" edge="1">
          <mxGeometry relative="1" as="geometry" />
        </mxCell>
        <mxCell id="gKyT9kXN7fTIEtzjclrL-81" style="edgeStyle=orthogonalEdgeStyle;shape=connector;rounded=0;orthogonalLoop=1;jettySize=auto;html=1;entryX=0;entryY=0.75;entryDx=0;entryDy=0;labelBackgroundColor=default;strokeColor=default;align=center;verticalAlign=middle;fontFamily=Helvetica;fontSize=11;fontColor=default;endArrow=none;endFill=0;endSize=12;" parent="1" source="gKyT9kXN7fTIEtzjclrL-3" target="gKyT9kXN7fTIEtzjclrL-57" edge="1">
          <mxGeometry relative="1" as="geometry" />
        </mxCell>
        <mxCell id="dz00qN40Cw-8zwDNOvpN-7" style="edgeStyle=orthogonalEdgeStyle;rounded=0;orthogonalLoop=1;jettySize=auto;html=1;endArrow=block;endFill=0;endSize=12;" edge="1" parent="1" source="gKyT9kXN7fTIEtzjclrL-3">
          <mxGeometry relative="1" as="geometry">
            <mxPoint x="55" y="140" as="targetPoint" />
          </mxGeometry>
        </mxCell>
        <mxCell id="gKyT9kXN7fTIEtzjclrL-3" value="Admin" style="shape=umlActor;verticalLabelPosition=bottom;verticalAlign=top;html=1;" parent="1" vertex="1">
          <mxGeometry x="40" y="660" width="30" height="60" as="geometry" />
        </mxCell>
        <mxCell id="gKyT9kXN7fTIEtzjclrL-75" style="edgeStyle=orthogonalEdgeStyle;shape=connector;rounded=0;orthogonalLoop=1;jettySize=auto;html=1;entryX=0;entryY=1;entryDx=0;entryDy=0;labelBackgroundColor=default;strokeColor=default;align=center;verticalAlign=middle;fontFamily=Helvetica;fontSize=11;fontColor=default;endArrow=none;endFill=0;endSize=12;" parent="1" source="gKyT9kXN7fTIEtzjclrL-4" target="gKyT9kXN7fTIEtzjclrL-53" edge="1">
          <mxGeometry relative="1" as="geometry">
            <Array as="points">
              <mxPoint x="140" y="477" />
              <mxPoint x="140" y="477" />
            </Array>
          </mxGeometry>
        </mxCell>
        <mxCell id="dz00qN40Cw-8zwDNOvpN-5" style="edgeStyle=orthogonalEdgeStyle;rounded=0;orthogonalLoop=1;jettySize=auto;html=1;endArrow=block;endFill=0;endSize=12;" edge="1" parent="1" source="gKyT9kXN7fTIEtzjclrL-4">
          <mxGeometry relative="1" as="geometry">
            <mxPoint x="55" y="140" as="targetPoint" />
          </mxGeometry>
        </mxCell>
        <mxCell id="gKyT9kXN7fTIEtzjclrL-4" value="Business_User" style="shape=umlActor;verticalLabelPosition=bottom;verticalAlign=top;html=1;" parent="1" vertex="1">
          <mxGeometry x="100" y="450" width="30" height="60" as="geometry" />
        </mxCell>
        <mxCell id="gKyT9kXN7fTIEtzjclrL-12" value="Öffentliche Stellenanzeigen&lt;br&gt;aufrufen" style="ellipse;whiteSpace=wrap;html=1;" parent="1" vertex="1">
          <mxGeometry x="270" y="100" width="120" height="80" as="geometry" />
        </mxCell>
        <mxCell id="gKyT9kXN7fTIEtzjclrL-35" value="" style="shape=ellipse;container=1;horizontal=1;horizontalStack=0;resizeParent=1;resizeParentMax=0;resizeLast=0;html=1;dashed=0;collapsible=0;fontFamily=Helvetica;fontSize=11;fontColor=default;" parent="1" vertex="1">
          <mxGeometry x="230" y="550" width="230" height="110" as="geometry" />
        </mxCell>
        <mxCell id="gKyT9kXN7fTIEtzjclrL-36" value="Vollzugriff auf alle Funktionen:&lt;br&gt;Erstellen, Bearbeiten und Löschen von Stellenanzeigen, Unternehmen, Kategorieren" style="html=1;strokeColor=none;fillColor=none;align=center;verticalAlign=middle;rotatable=0;whiteSpace=wrap;fontFamily=Helvetica;fontSize=11;fontColor=default;" parent="gKyT9kXN7fTIEtzjclrL-35" vertex="1">
          <mxGeometry y="10.84" width="230" height="45.99" as="geometry" />
        </mxCell>
        <mxCell id="gKyT9kXN7fTIEtzjclrL-37" value="" style="line;strokeWidth=1;fillColor=none;rotatable=0;labelPosition=right;points=[];portConstraint=eastwest;dashed=0;resizeWidth=1;fontFamily=Helvetica;fontSize=11;fontColor=default;" parent="gKyT9kXN7fTIEtzjclrL-35" vertex="1">
          <mxGeometry y="56.82600000000001" width="230.00000000000003" height="9.163" as="geometry" />
        </mxCell>
        <mxCell id="gKyT9kXN7fTIEtzjclrL-38" value="ep: nicht eingeloggt" style="text;html=1;align=center;verticalAlign=middle;rotatable=0;spacingLeft=25;fillColor=none;strokeColor=none;whiteSpace=wrap;fontSize=11;fontFamily=Helvetica;fontColor=default;" parent="gKyT9kXN7fTIEtzjclrL-35" vertex="1">
          <mxGeometry y="65.99633333333335" width="230.00000000000006" height="27.500000000000004" as="geometry" />
        </mxCell>
        <mxCell id="gKyT9kXN7fTIEtzjclrL-45" value="" style="shape=ellipse;container=1;horizontal=1;horizontalStack=0;resizeParent=1;resizeParentMax=0;resizeLast=0;html=1;dashed=0;collapsible=0;fontFamily=Helvetica;fontSize=11;fontColor=default;" parent="1" vertex="1">
          <mxGeometry x="260" y="240" width="230" height="110" as="geometry" />
        </mxCell>
        <mxCell id="gKyT9kXN7fTIEtzjclrL-46" value="Auf Stellenanzeigen bewerben" style="html=1;strokeColor=none;fillColor=none;align=center;verticalAlign=middle;rotatable=0;whiteSpace=wrap;fontFamily=Helvetica;fontSize=11;fontColor=default;" parent="gKyT9kXN7fTIEtzjclrL-45" vertex="1">
          <mxGeometry y="10.989" width="230.00000000000006" height="45.83333333333334" as="geometry" />
        </mxCell>
        <mxCell id="gKyT9kXN7fTIEtzjclrL-47" value="" style="line;strokeWidth=1;fillColor=none;rotatable=0;labelPosition=right;points=[];portConstraint=eastwest;dashed=0;resizeWidth=1;fontFamily=Helvetica;fontSize=11;fontColor=default;" parent="gKyT9kXN7fTIEtzjclrL-45" vertex="1">
          <mxGeometry y="56.82600000000001" width="230.00000000000003" height="9.163" as="geometry" />
        </mxCell>
        <mxCell id="gKyT9kXN7fTIEtzjclrL-48" value="ep: nicht eingeloggt" style="text;html=1;align=center;verticalAlign=middle;rotatable=0;spacingLeft=25;fillColor=none;strokeColor=none;whiteSpace=wrap;fontSize=11;fontFamily=Helvetica;fontColor=default;" parent="gKyT9kXN7fTIEtzjclrL-45" vertex="1">
          <mxGeometry y="65.99633333333335" width="230.00000000000006" height="27.500000000000004" as="geometry" />
        </mxCell>
        <mxCell id="gKyT9kXN7fTIEtzjclrL-52" value="" style="shape=ellipse;container=1;horizontal=1;horizontalStack=0;resizeParent=1;resizeParentMax=0;resizeLast=0;html=1;dashed=0;collapsible=0;fontFamily=Helvetica;fontSize=11;fontColor=default;" parent="1" vertex="1">
          <mxGeometry x="230" y="420" width="230" height="110" as="geometry" />
        </mxCell>
        <mxCell id="gKyT9kXN7fTIEtzjclrL-53" value="Verwaltung von Stellenanzeigen:&lt;br&gt;Erstellen und Bearbeiten von&lt;br&gt;Stellenanzeigen für das eigene Unternehmen" style="html=1;strokeColor=none;fillColor=none;align=center;verticalAlign=middle;rotatable=0;whiteSpace=wrap;fontFamily=Helvetica;fontSize=11;fontColor=default;" parent="gKyT9kXN7fTIEtzjclrL-52" vertex="1">
          <mxGeometry y="10.84" width="230" height="45.99" as="geometry" />
        </mxCell>
        <mxCell id="gKyT9kXN7fTIEtzjclrL-54" value="" style="line;strokeWidth=1;fillColor=none;rotatable=0;labelPosition=right;points=[];portConstraint=eastwest;dashed=0;resizeWidth=1;fontFamily=Helvetica;fontSize=11;fontColor=default;" parent="gKyT9kXN7fTIEtzjclrL-52" vertex="1">
          <mxGeometry y="56.82600000000001" width="230.00000000000003" height="9.163" as="geometry" />
        </mxCell>
        <mxCell id="gKyT9kXN7fTIEtzjclrL-55" value="ep: nicht eingeloggt" style="text;html=1;align=center;verticalAlign=middle;rotatable=0;spacingLeft=25;fillColor=none;strokeColor=none;whiteSpace=wrap;fontSize=11;fontFamily=Helvetica;fontColor=default;" parent="gKyT9kXN7fTIEtzjclrL-52" vertex="1">
          <mxGeometry y="65.99633333333335" width="230.00000000000006" height="27.500000000000004" as="geometry" />
        </mxCell>
        <mxCell id="gKyT9kXN7fTIEtzjclrL-56" value="" style="shape=ellipse;container=1;horizontal=1;horizontalStack=0;resizeParent=1;resizeParentMax=0;resizeLast=0;html=1;dashed=0;collapsible=0;fontFamily=Helvetica;fontSize=11;fontColor=default;" parent="1" vertex="1">
          <mxGeometry x="230" y="680" width="230" height="110" as="geometry" />
        </mxCell>
        <mxCell id="gKyT9kXN7fTIEtzjclrL-57" value="Verwalten von Benutzerkonten" style="html=1;strokeColor=none;fillColor=none;align=center;verticalAlign=middle;rotatable=0;whiteSpace=wrap;fontFamily=Helvetica;fontSize=11;fontColor=default;" parent="gKyT9kXN7fTIEtzjclrL-56" vertex="1">
          <mxGeometry y="10.84" width="230" height="45.99" as="geometry" />
        </mxCell>
        <mxCell id="gKyT9kXN7fTIEtzjclrL-58" value="" style="line;strokeWidth=1;fillColor=none;rotatable=0;labelPosition=right;points=[];portConstraint=eastwest;dashed=0;resizeWidth=1;fontFamily=Helvetica;fontSize=11;fontColor=default;" parent="gKyT9kXN7fTIEtzjclrL-56" vertex="1">
          <mxGeometry y="56.82600000000001" width="230.00000000000003" height="9.163" as="geometry" />
        </mxCell>
        <mxCell id="gKyT9kXN7fTIEtzjclrL-59" value="ep: nicht eingeloggt" style="text;html=1;align=center;verticalAlign=middle;rotatable=0;spacingLeft=25;fillColor=none;strokeColor=none;whiteSpace=wrap;fontSize=11;fontFamily=Helvetica;fontColor=default;" parent="gKyT9kXN7fTIEtzjclrL-56" vertex="1">
          <mxGeometry y="65.99633333333335" width="230.00000000000006" height="27.500000000000004" as="geometry" />
        </mxCell>
        <mxCell id="gKyT9kXN7fTIEtzjclrL-74" style="edgeStyle=orthogonalEdgeStyle;shape=connector;rounded=0;orthogonalLoop=1;jettySize=auto;html=1;entryX=0;entryY=0.5;entryDx=0;entryDy=0;labelBackgroundColor=default;strokeColor=default;align=center;verticalAlign=middle;fontFamily=Helvetica;fontSize=11;fontColor=default;endArrow=none;endFill=0;endSize=12;exitX=0.5;exitY=0.5;exitDx=0;exitDy=0;exitPerimeter=0;" parent="1" source="dz00qN40Cw-8zwDNOvpN-2" target="gKyT9kXN7fTIEtzjclrL-12" edge="1">
          <mxGeometry relative="1" as="geometry">
            <mxPoint x="170" y="270" as="sourcePoint" />
          </mxGeometry>
        </mxCell>
        <mxCell id="gKyT9kXN7fTIEtzjclrL-79" style="edgeStyle=orthogonalEdgeStyle;shape=connector;rounded=0;orthogonalLoop=1;jettySize=auto;html=1;labelBackgroundColor=default;strokeColor=default;align=center;verticalAlign=middle;fontFamily=Helvetica;fontSize=11;fontColor=default;endArrow=none;endFill=0;endSize=12;exitX=0.5;exitY=0.5;exitDx=0;exitDy=0;exitPerimeter=0;" parent="1" source="gKyT9kXN7fTIEtzjclrL-2" target="gKyT9kXN7fTIEtzjclrL-62" edge="1">
          <mxGeometry relative="1" as="geometry">
            <Array as="points">
              <mxPoint x="135" y="280" />
              <mxPoint x="215" y="280" />
              <mxPoint x="215" y="380" />
              <mxPoint x="480" y="380" />
              <mxPoint x="480" y="430" />
            </Array>
            <mxPoint x="170" y="300" as="sourcePoint" />
          </mxGeometry>
        </mxCell>
        <mxCell id="gKyT9kXN7fTIEtzjclrL-62" value="" style="shape=ellipse;container=1;horizontal=1;horizontalStack=0;resizeParent=1;resizeParentMax=0;resizeLast=0;html=1;dashed=0;collapsible=0;fontFamily=Helvetica;fontSize=11;fontColor=default;" parent="1" vertex="1">
          <mxGeometry x="620" y="370" width="180" height="120" as="geometry" />
        </mxCell>
        <mxCell id="gKyT9kXN7fTIEtzjclrL-63" value="einloggen" style="html=1;strokeColor=none;fillColor=none;align=center;verticalAlign=middle;rotatable=0;whiteSpace=wrap;fontFamily=Helvetica;fontSize=11;fontColor=default;" parent="gKyT9kXN7fTIEtzjclrL-62" vertex="1">
          <mxGeometry width="180" height="30" as="geometry" />
        </mxCell>
        <mxCell id="gKyT9kXN7fTIEtzjclrL-64" value="" style="line;strokeWidth=1;fillColor=none;rotatable=0;labelPosition=right;points=[];portConstraint=eastwest;dashed=0;resizeWidth=1;fontFamily=Helvetica;fontSize=11;fontColor=default;" parent="gKyT9kXN7fTIEtzjclrL-62" vertex="1">
          <mxGeometry x="9" y="30" width="162" height="10" as="geometry" />
        </mxCell>
        <mxCell id="gKyT9kXN7fTIEtzjclrL-66" value="ep: regestriert&amp;nbsp;" style="text;html=1;align=center;verticalAlign=middle;rotatable=0;spacingLeft=25;fillColor=none;strokeColor=none;whiteSpace=wrap;fontSize=11;fontFamily=Helvetica;fontColor=default;" parent="gKyT9kXN7fTIEtzjclrL-62" vertex="1">
          <mxGeometry x="-9" y="50" width="180" height="30" as="geometry" />
        </mxCell>
        <mxCell id="gKyT9kXN7fTIEtzjclrL-67" value="Regestrieren" style="ellipse;whiteSpace=wrap;html=1;fontFamily=Helvetica;fontSize=11;fontColor=default;" parent="1" vertex="1">
          <mxGeometry x="420" y="40" width="120" height="80" as="geometry" />
        </mxCell>
        <mxCell id="gKyT9kXN7fTIEtzjclrL-71" value="&amp;lt;&amp;lt;extend&amp;gt;&amp;gt;" style="html=1;verticalAlign=bottom;labelBackgroundColor=none;endArrow=open;endFill=0;dashed=1;rounded=0;strokeColor=default;align=center;fontFamily=Helvetica;fontSize=11;fontColor=default;endSize=12;shape=connector;" parent="1" source="gKyT9kXN7fTIEtzjclrL-67" target="gKyT9kXN7fTIEtzjclrL-62" edge="1">
          <mxGeometry width="160" relative="1" as="geometry">
            <mxPoint x="500" y="350" as="sourcePoint" />
            <mxPoint x="660" y="350" as="targetPoint" />
          </mxGeometry>
        </mxCell>
        <mxCell id="gKyT9kXN7fTIEtzjclrL-72" value="&amp;lt;&amp;lt;extend&amp;gt;&amp;gt;" style="html=1;verticalAlign=bottom;labelBackgroundColor=none;endArrow=open;endFill=0;dashed=1;rounded=0;strokeColor=default;align=center;fontFamily=Helvetica;fontSize=11;fontColor=default;endSize=12;shape=connector;" parent="1" source="gKyT9kXN7fTIEtzjclrL-62" target="gKyT9kXN7fTIEtzjclrL-45" edge="1">
          <mxGeometry width="160" relative="1" as="geometry">
            <mxPoint x="620" y="400" as="sourcePoint" />
            <mxPoint x="527" y="300" as="targetPoint" />
          </mxGeometry>
        </mxCell>
        <mxCell id="gKyT9kXN7fTIEtzjclrL-73" value="&amp;lt;&amp;lt;extend&amp;gt;&amp;gt;" style="html=1;verticalAlign=bottom;labelBackgroundColor=none;endArrow=open;endFill=0;dashed=1;rounded=0;strokeColor=default;align=center;fontFamily=Helvetica;fontSize=11;fontColor=default;endSize=12;shape=connector;entryX=1;entryY=0;entryDx=0;entryDy=0;" parent="1" source="gKyT9kXN7fTIEtzjclrL-62" target="gKyT9kXN7fTIEtzjclrL-55" edge="1">
          <mxGeometry width="160" relative="1" as="geometry">
            <mxPoint x="620" y="230" as="sourcePoint" />
            <mxPoint x="450" y="191" as="targetPoint" />
            <Array as="points">
              <mxPoint x="540" y="466" />
            </Array>
          </mxGeometry>
        </mxCell>
        <mxCell id="gKyT9kXN7fTIEtzjclrL-76" value="&amp;lt;&amp;lt;extend&amp;gt;&amp;gt;" style="html=1;verticalAlign=bottom;labelBackgroundColor=none;endArrow=open;endFill=0;dashed=1;rounded=0;strokeColor=default;align=center;fontFamily=Helvetica;fontSize=11;fontColor=default;endSize=12;shape=connector;entryX=1;entryY=0;entryDx=0;entryDy=0;exitX=0.111;exitY=0.867;exitDx=0;exitDy=0;exitPerimeter=0;" parent="1" source="gKyT9kXN7fTIEtzjclrL-62" target="gKyT9kXN7fTIEtzjclrL-38" edge="1">
          <mxGeometry width="160" relative="1" as="geometry">
            <mxPoint x="620" y="473" as="sourcePoint" />
            <mxPoint x="480" y="476" as="targetPoint" />
            <Array as="points" />
          </mxGeometry>
        </mxCell>
        <mxCell id="gKyT9kXN7fTIEtzjclrL-77" value="&amp;lt;&amp;lt;extend&amp;gt;&amp;gt;" style="html=1;verticalAlign=bottom;labelBackgroundColor=none;endArrow=open;endFill=0;dashed=1;rounded=0;strokeColor=default;align=center;fontFamily=Helvetica;fontSize=11;fontColor=default;endSize=12;shape=connector;entryX=1;entryY=0;entryDx=0;entryDy=0;exitX=0.3;exitY=0.975;exitDx=0;exitDy=0;exitPerimeter=0;" parent="1" source="gKyT9kXN7fTIEtzjclrL-62" target="gKyT9kXN7fTIEtzjclrL-59" edge="1">
          <mxGeometry width="160" relative="1" as="geometry">
            <mxPoint x="636" y="410" as="sourcePoint" />
            <mxPoint x="403" y="220" as="targetPoint" />
          </mxGeometry>
        </mxCell>
        <mxCell id="dz00qN40Cw-8zwDNOvpN-2" value="Visitor" style="shape=umlActor;verticalLabelPosition=bottom;verticalAlign=top;html=1;" vertex="1" parent="1">
          <mxGeometry x="40" y="50" width="30" height="60" as="geometry" />
        </mxCell>
      </root>
    </mxGraphModel>
  </diagram>
</mxfile>
